<svg width="24px" height="24px" viewBox="0 0 24 24" version="1.1" xmlns="http://www.w3.org/2000/svg" xmlns:xlink="http://www.w3.org/1999/xlink">
    <defs>
        <linearGradient x1="13.4437243%" y1="18.39621%" x2="86.892839%" y2="91.1382071%" id="linearGradient-8u4u8iv5hn-1">
            <stop stop-color="#F2DC8D" offset="0%"></stop>
            <stop stop-color="#C2993E" offset="100%"></stop>
        </linearGradient>
    </defs>
    <g id="Page-1" stroke="none" stroke-width="1" fill="none" fill-rule="evenodd">
        <g id="Artboard-Copy" transform="translate(-376.000000, -28.000000)">
            <g id="Group-10" transform="translate(150.000000, 15.000000)">
                <g id="Group-22" transform="translate(226.000000, 13.000000)">
                    <rect id="Rectangle-Copy-9" x="0" y="0" width="24" height="24"></rect>
                    <path d="M20.1593824,4.51732271 C20.1531015,4.50462304 20.1426928,4.4946716 20.1300206,4.48925088 C18.6648811,3.78780137 17.1187388,3.28761295 15.5302869,3.00120308 C15.5006875,2.995461 15.4708957,3.01017203 15.4563828,3.03769646 C15.2458465,3.43643238 15.0547262,3.84599986 14.8837508,4.26483662 C13.1714863,3.99361529 11.4297986,3.99361529 9.71753416,4.26483662 C9.54542686,3.84493632 9.35124382,3.43526674 9.13587073,3.03769646 C9.1207534,3.0108305 9.09142093,2.99635384 9.06192818,3.00120308 C7.47330834,3.28701166 5.9270657,3.78723769 4.46211762,4.48929098 C4.44957708,4.49483858 4.43899565,4.50431072 4.43183346,4.51640035 C1.50222516,9.08160235 0.699694876,13.5345571 1.09338898,17.9323708 C1.09562667,17.9541479 1.10623588,17.9740458 1.12278921,17.9875119 C2.82867298,19.3055058 4.73672461,20.3115407 6.76552019,20.9626851 C6.79478093,20.9718442 6.82641297,20.9610285 6.84480474,20.9355757 C7.28054602,20.3169046 7.66664552,19.6617866 7.99917702,18.9768836 C8.00841916,18.9578732 8.00942505,18.9356449 8.00194077,18.9158103 C7.99445648,18.8959757 7.97919723,18.8804301 7.96001514,18.873098 C7.35116443,18.6300094 6.76172584,18.3369719 6.19723098,17.9967355 C6.17640661,17.9839613 6.16305411,17.9611966 6.16162703,17.9360343 C6.16019994,17.9108719 6.17088603,17.8866227 6.19012112,17.8713747 C6.30890448,17.77879 6.42562686,17.6833605 6.54019526,17.5851623 C6.56069153,17.5675472 6.58898218,17.5635697 6.61321545,17.574896 C10.3114573,19.3360828 14.3153078,19.3360828 17.969776,17.574896 C17.9940831,17.5628392 18.0228722,17.5664772 18.0437186,17.5842399 C18.1584172,17.6829573 18.275439,17.7786982 18.3946766,17.8713747 C18.4140146,17.8864663 18.4248696,17.9106244 18.4236198,17.9357886 C18.42237,17.9609528 18.4091801,17.9838106 18.3884507,17.9967355 C17.8252395,18.339834 17.2352666,18.632688 16.624821,18.8721757 C16.6056483,18.8797889 16.590494,18.8955683 16.583157,18.9155583 C16.5758199,18.9355483 16.5769956,18.9578538 16.5863894,18.9768836 C16.9244882,19.6579778 17.3100191,20.3122705 17.7398777,20.934493 C17.7577701,20.9606688 17.7896987,20.9719736 17.8191623,20.9625648 C19.8515934,20.3136279 21.7629799,19.3074995 23.4710016,17.9875119 C23.4878259,17.9746993 23.4985403,17.9549403 23.5004018,17.9332931 C23.9717279,12.8489627 22.7113226,8.43250135 20.1593824,4.51732271 L20.1593824,4.51732271 Z M8.55147865,15.2545585 C7.4380361,15.2545585 6.52059511,14.1883501 6.52059511,12.8789194 C6.52059511,11.5694887 7.42024224,10.5032001 8.55147865,10.5032001 C9.69155435,10.5032001 10.6001176,11.5787524 10.5823238,12.8788392 C10.5823238,14.1883501 9.6826382,15.2545585 8.55147865,15.2545585 L8.55147865,15.2545585 Z M16.0602597,15.2545585 C14.9468556,15.2545585 14.0294146,14.1883501 14.0294146,12.8789194 C14.0294146,11.5694887 14.9290617,10.5032001 16.0602597,10.5032001 C17.2004123,10.5032001 18.1089371,11.5787524 18.0911432,12.8788392 C18.0911432,14.1883501 17.2004123,15.2545585 16.0602597,15.2545585 Z" id="Shape" fill="url(#linearGradient-8u4u8iv5hn-1)" fill-rule="nonzero"></path>
                </g>
            </g>
        </g>
    </g>
</svg>
