<svg xmlns="http://www.w3.org/2000/svg"
xmlns:xlink="http://www.w3.org/1999/xlink" width="1405px"
height="961px">
  <path fill-rule="evenodd" opacity="0.2" fill="rgb(46, 135, 151)"
  d="M1399.123,876.264 L1244.54,959.135 C1240.800,960.873 1236.893,960.881 1233.633,959.157 L1088.531,882.412 C1085.237,880.670 1081.287,880.698 1078.17,882.485 L972.397,940.229 C966.743,943.321 959.837,939.229 959.846,932.791 L959.960,845.246 C959.968,838.873 953.189,834.776 947.539,837.738 L816.313,906.539 C810.667,909.499 803.890,905.410 803.893,899.40 L803.907,834.56 C803.908,827.686 797.130,823.597 791.483,826.559 L656.415,897.429 C653.230,899.100 649.432,899.124 646.227,897.494 L590.862,869.346 C587.661,867.717 583.867,867.740 580.685,869.406 L453.232,936.122 C449.990,937.819 446.118,937.809 442.885,936.95 L319.766,870.812 C316.511,869.86 312.610,869.87 309.356,870.817 L153.281,953.768 C150.8,955.507 146.81,955.498 142.817,953.743 L6.159,880.284 C2.567,878.353 0.328,874.609 0.328,870.535 L0.328,340.548 C0.328,329.854 11.754,323.26 21.191,328.83 L304.540,479.862 C310.189,482.889 317.28,478.802 317.28,472.402 L317.28,385.270 C317.28,378.870 323.864,374.784 329.513,377.807 L379.702,406.61 L379.702,66.671 C379.702,63.866 380.754,61.164 382.653,59.97 L432.811,4.474 C434.936,2.158 437.937,0.840 441.83,0.840 L717.57,0.840 L963.713,0.840 C966.859,0.840 969.860,2.158 971.986,4.474 L1022.144,59.97 C1024.42,61.164 1025.95,63.866 1025.95,66.671 L1025.95,390.909 L1033.298,390.908 C1037.188,390.908 1042.79,393.192 1043.686,394.902 C1043.686,394.902 1089.590,441.902 1107.471,460.918 C1118.535,471.567 1124.811,466.278 1129.532,464.219 L1384.174,328.141 C1393.609,323.143 1404.979,329.973 1404.979,340.638 L1404.979,866.503 C1404.979,870.586 1402.729,874.338 1399.123,876.264 ZM328.201,652.830 C328.201,650.280 326.132,648.214 323.579,648.216 L177.782,648.304 C176.19,648.304 174.410,649.308 173.636,650.891 L137.974,723.706 C136.473,726.771 138.707,730.348 142.123,730.348 L189.781,730.348 C192.333,730.348 194.402,732.414 194.402,734.962 L194.402,831.856 C194.402,835.338 190.688,837.566 187.611,835.930 L137.458,809.266 C127.409,803.924 121.130,793.480 121.130,782.109 L121.130,523.779 C121.130,520.297 124.843,518.69 127.921,519.705 L178.73,546.368 C188.122,551.711 194.402,562.155 194.402,573.526 L194.402,616.958 C194.402,620.202 197.857,622.282 200.729,620.766 L274.667,581.728 C276.181,580.929 277.128,579.359 277.128,577.648 L277.128,511.590 C277.128,508.186 275.253,505.58 272.248,503.453 L52.731,386.109 C46.576,382.819 39.132,387.274 39.132,394.247 L39.132,845.67 C39.132,848.727 41.164,852.85 44.409,853.785 L147.669,907.893 C149.920,909.72 152.608,909.66 154.854,907.876 L273.37,845.250 C275.554,843.916 277.128,841.302 277.128,838.456 L277.128,734.980 C277.128,732.425 279.207,730.356 281.766,730.366 L323.565,730.525 C326.123,730.535 328.201,728.466 328.201,725.910 L328.201,652.830 ZM651.250,853.780 C653.499,854.975 656.196,854.981 658.451,853.795 L787.70,786.181 C789.601,784.851 791.184,782.230 791.184,779.376 L791.184,490.754 C791.184,487.922 789.625,485.317 787.126,483.978 L690.731,432.313 C688.14,430.857 684.749,430.850 682.26,432.295 L523.995,516.178 C521.480,517.513 519.908,520.125 519.908,522.970 L519.908,779.397 C519.908,782.241 521.480,784.853 523.993,786.188 L651.250,853.780 ZM495.212,460.738 C493.916,460.789 493.119,462.175 493.727,463.320 L513.278,500.156 L677.505,413.49 L657.939,376.187 C657.335,375.49 655.752,374.925 654.978,375.955 L628.37,411.827 L623.379,403.51 C622.746,401.858 621.762,400.888 620.559,400.272 L547.315,362.775 C546.226,362.218 544.916,362.913 544.767,364.127 L534.763,445.779 C534.599,447.119 534.851,448.478 535.483,449.671 L540.418,458.969 L495.212,460.738 ZM363.773,437.589 C360.80,435.608 355.607,438.280 355.607,442.468 L355.607,837.634 C355.607,841.279 357.623,844.626 360.847,846.332 L447.937,892.442 C450.200,893.641 452.911,893.637 455.171,892.431 L534.231,850.247 C537.475,848.516 537.492,843.876 534.261,842.122 L457.929,800.675 C448.13,795.290 441.840,784.919 441.840,773.646 L441.840,484.969 C441.840,481.569 439.969,478.446 436.970,476.837 L363.773,437.589 ZM611.963,42.296 L466.335,42.355 C464.391,42.356 462.533,43.160 461.203,44.577 L424.907,83.250 C423.684,84.554 423.3,86.273 423.3,88.59 L423.3,216.726 L423.2,247.114 L422.690,353.497 C422.686,354.740 423.383,355.880 424.493,356.444 L478.594,383.955 C480.198,384.770 482.101,383.615 482.111,381.816 L482.901,257.511 C482.912,255.699 484.387,254.236 486.201,254.236 L536.393,254.236 C537.663,254.236 538.821,253.508 539.370,252.362 L565.850,197.93 C566.619,195.489 565.447,193.632 563.667,193.632 L486.222,193.632 C484.399,193.632 482.922,192.156 482.922,190.336 L482.922,105.760 C482.922,103.940 484.399,102.464 486.222,102.464 L586.683,102.464 C587.985,102.464 589.166,101.700 589.697,100.512 L614.174,45.697 C614.888,44.98 613.716,42.295 611.963,42.296 ZM775.25,78.998 C775.25,76.391 773.581,73.998 771.273,72.781 L716.787,44.35 C714.723,42.947 712.253,42.950 710.192,44.45 L603.243,100.914 C600.946,102.135 599.511,104.521 599.511,107.120 L599.511,285.348 C599.511,287.942 600.941,290.325 603.232,291.549 L683.741,334.545 C685.810,335.650 688.294,335.653 690.366,334.552 L771.292,291.545 C773.590,290.325 775.25,287.937 775.25,285.338 L775.25,78.998 ZM984.292,196.929 C984.292,195.108 982.815,193.632 980.992,193.632 L926.221,193.632 L980.475,165.726 C982.819,164.521 984.292,162.107 984.292,159.475 L984.292,86.220 C984.292,84.420 983.601,82.690 982.363,81.384 L947.371,44.490 C946.42,43.88 944.193,42.294 942.260,42.294 L814.471,42.294 C812.448,42.294 794.673,42.294 785.987,42.294 C782.178,42.294 784.331,45.589 784.331,45.589 L809.189,67.998 L809.189,102.51 L808.969,339.320 C808.965,341.131 810.954,342.578 812.566,341.750 L869.883,312.328 L869.883,257.532 C869.883,255.711 871.360,254.236 873.182,254.236 L920.321,254.236 C922.143,254.236 923.620,255.711 923.620,257.532 L923.620,382.248 C923.620,384.69 925.560,385.236 927.171,384.385 L980.542,356.206 C982.849,354.987 984.292,352.595 984.292,349.989 L984.292,196.929 ZM1080.872,654.446 C1080.864,651.53 1078.108,648.306 1074.712,648.306 L1020.741,648.306 C1015.896,648.306 1014.319,641.804 1018.626,639.589 L1075.848,610.157 C1078.925,608.574 1080.858,605.409 1080.858,601.951 L1080.858,494.954 C1080.858,492.609 1079.965,490.353 1078.359,488.642 L1030.423,437.570 C1028.672,435.704 1026.223,434.647 1023.662,434.653 L809.595,435.137 C803.683,435.151 801.183,442.670 805.913,446.213 L839.132,471.99 C841.71,472.551 842.213,474.832 842.212,477.253 L842.135,841.993 C842.135,845.701 846.83,848.78 849.366,846.345 L921.578,808.221 C923.597,807.155 924.860,805.60 924.860,802.781 L924.860,737.90 C924.860,733.692 927.618,730.937 931.20,730.937 L991.966,730.937 C995.371,730.937 998.129,733.695 998.127,737.95 L998.7,874.892 C998.4,878.635 1002.19,881.12 1005.304,879.212 L1078.56,839.361 C1080.34,838.279 1081.259,836.204 1081.255,833.953 L1080.872,654.446 ZM1372.950,390.860 C1372.950,385.56 1366.761,383.189 1361.632,385.917 L1295.713,420.970 C1292.698,422.573 1290.815,425.705 1290.815,429.117 L1290.815,643.691 C1290.815,646.240 1288.746,648.306 1286.194,648.306 L1248.343,648.306 C1231.332,648.306 1217.543,634.532 1217.543,617.541 L1217.543,471.721 C1217.543,467.549 1213.100,464.876 1209.408,466.825 L1140.67,503.434 C1136.837,505.140 1134.816,508.489 1134.816,512.138 L1134.816,722.558 C1134.816,726.861 1138.308,730.348 1142.615,730.348 L1286.194,730.348 C1288.746,730.348 1290.815,732.414 1290.815,734.962 L1290.815,834.138 C1290.815,837.622 1287.97,839.850 1284.19,838.210 L1206.986,797.138 C1204.721,795.929 1202.1,795.929 1199.735,797.138 L1123.566,837.749 C1120.302,839.489 1120.309,844.164 1123.576,845.896 L1235.318,905.110 C1239.350,907.245 1244.184,907.235 1248.206,905.81 L1367.750,841.75 C1370.952,839.361 1372.950,836.26 1372.950,832.398 L1372.950,390.860 ZM993.512,648.306 L929.495,648.306 C926.937,648.306 924.867,646.231 924.875,643.677 L925.267,520.655 C925.275,518.90 927.377,516.24 929.945,516.56 L974.265,516.610 C978.188,516.658 981.921,518.301 984.605,521.160 L994.232,531.417 C996.737,534.86 998.132,537.609 998.132,541.267 L998.132,643.691 C998.132,646.240 996.64,648.306 993.512,648.306 ZM869.883,190.336 L869.902,102.390 L907.760,102.464 C909.584,102.464 911.328,103.219 912.575,104.548 L921.835,114.415 C922.982,115.637 923.620,117.249 923.620,118.923 L923.620,193.632 L873.182,193.632 C871.360,193.632 869.883,192.156 869.883,190.336 ZM711.127,280.501 L663.935,255.612 C661.627,254.394 660.183,252.1 660.183,249.393 L660.183,88.472 C660.183,86.812 661.956,85.751 663.422,86.535 L710.640,111.817 C712.927,113.41 714.353,115.422 714.353,118.14 L714.353,278.557 C714.353,280.212 712.591,281.274 711.127,280.501 ZM612.246,488.268 L691.770,530.311 C701.855,535.642 708.162,546.106 708.162,557.502 L708.162,778.767 C708.162,782.262 704.423,784.488 701.346,782.827 L619.329,738.556 C609.375,733.184 603.171,722.792 603.171,711.490 L603.171,493.726 C603.171,489.73 608.128,486.92 612.246,488.268 Z" />
</svg>
