<?xml version="1.0" encoding="UTF-8"?>
<svg width="24px" height="24px" viewBox="0 0 24 24" version="1.1" xmlns="http://www.w3.org/2000/svg" xmlns:xlink="http://www.w3.org/1999/xlink">
    <title>Group 21</title>
    <g id="Page-1" stroke="none" stroke-width="1" fill="none" fill-rule="evenodd">
        <g id="Artboard-Copy" transform="translate(-1222.000000, -3011.000000)">
            <g id="Group-4" transform="translate(150.000000, 3011.000000)">
                <g id="Group-29" transform="translate(984.000000, 0.000000)">
                    <g id="Group-21" transform="translate(88.000000, 0.000000)">
                        <rect id="Rectangle-Copy-8" x="0" y="0" width="24" height="24"></rect>
                        <g id="medium" transform="translate(1.000000, 3.000000)" fill="#FFFFFF" fill-rule="nonzero">
                            <path d="M2.72741666,3.67179217 C2.75609074,3.3933941 2.64820341,3.11823059 2.43704166,2.93119915 L0.290375,0.380687469 L0.290375,0 L6.9575,0 L12.1114167,11.1419575 L16.6424167,0 L23,0 L23,0.380687469 L21.162875,2.11598005 C21.0046139,2.23505913 20.9260742,2.43060069 20.95875,2.62419313 L20.95875,15.3767515 C20.9264499,15.5700324 21.0049503,15.7651128 21.162875,15.8840199 L22.9549583,17.6193125 L22.9549583,18 L13.9370417,18 L13.9370417,17.6193125 L15.7933333,15.8415114 C15.9754167,15.662031 15.9754167,15.6091315 15.9754167,15.3332983 L15.9754167,5.02639727 L10.81,17.9565468 L10.1132917,17.9565468 L4.09975,5.02639727 L4.09975,13.6924692 C4.04991666,14.0570979 4.17258334,14.4236158 4.43229166,14.6871687 L6.84729166,17.5777486 L6.84729166,17.9574915 L0,17.9574915 L0,17.576804 L2.415,14.6862241 C2.67375,14.4236158 2.78875,14.0533193 2.72741666,13.6924692 L2.72741666,3.67179217 Z" id="Path"></path>
                        </g>
                    </g>
                </g>
            </g>
        </g>
    </g>
</svg>