<?xml version="1.0" encoding="UTF-8"?>
<!DOCTYPE svg PUBLIC "-//W3C//DTD SVG 1.1//EN" "http://www.w3.org/Graphics/SVG/1.1/DTD/svg11.dtd">
<svg xmlns="http://www.w3.org/2000/svg" version="1.1" width="74px" height="69px" style="shape-rendering:geometricPrecision; text-rendering:geometricPrecision; image-rendering:optimizeQuality; fill-rule:evenodd; clip-rule:evenodd" xmlns:xlink="http://www.w3.org/1999/xlink">
<g><path  fill="#999" d="M 14.5,-0.5 C 29.1667,-0.5 43.8333,-0.5 58.5,-0.5C 63.0557,1.44167 68.0557,2.10834 73.5,1.5C 73.5,4.5 73.5,7.5 73.5,10.5C 68.8489,20.1478 61.5155,27.1478 51.5,31.5C 49.191,35.6425 46.0243,38.9758 42,41.5C 41.1747,45.2113 41.3414,48.878 42.5,52.5C 45.8333,53.8333 49.1667,55.1667 52.5,56.5C 53.4287,57.6888 53.762,59.0222 53.5,60.5C 42.1667,60.5 30.8333,60.5 19.5,60.5C 19.238,59.0222 19.5713,57.6888 20.5,56.5C 23.913,55.3624 27.2464,54.0291 30.5,52.5C 31.6586,48.878 31.8253,45.2113 31,41.5C 26.9757,38.9758 23.809,35.6425 21.5,31.5C 11.091,27.0912 3.75771,19.7578 -0.5,9.5C -0.5,6.83333 -0.5,4.16667 -0.5,1.5C 4.94428,2.10834 9.94428,1.44167 14.5,-0.5 Z M 35.5,9.5 C 37.3838,10.3816 38.7171,11.8816 39.5,14C 41.1667,14.3333 42.8333,14.6667 44.5,15C 42.981,16.3513 41.6477,17.8513 40.5,19.5C 41.6446,20.891 41.6446,22.2243 40.5,23.5C 39.1667,22.8333 37.8333,22.1667 36.5,21.5C 35.1667,22.1667 33.8333,22.8333 32.5,23.5C 31.3554,22.2243 31.3554,20.891 32.5,19.5C 31.3523,17.8513 30.019,16.3513 28.5,15C 32.775,15.5316 35.1083,13.6982 35.5,9.5 Z M 5.5,6.5 C 8.8499,6.33499 12.1832,6.50166 15.5,7C 15.1667,7.33333 14.8333,7.66667 14.5,8C 15.4529,13.0959 16.7862,18.0959 18.5,23C 11.0044,20.2568 6.67105,14.7568 5.5,6.5 Z M 58.5,6.5 C 61.8499,6.33499 65.1832,6.50166 68.5,7C 66.1919,14.1264 61.8586,19.6264 55.5,23.5C 55.1667,23.3333 54.8333,23.1667 54.5,23C 56.6326,17.7123 57.9659,12.2123 58.5,6.5 Z"/></g>
<g><path fill="#999" d="M 51.5,57.5 C 41.5,58.8333 31.5,58.8333 21.5,57.5C 25.0272,56.2682 28.5272,54.9349 32,53.5C 32.6667,49.1667 32.6667,44.8333 32,40.5C 28.1309,38.2632 25.2976,35.0966 23.5,31C 10.0269,26.0413 2.36019,16.5413 0.5,2.5C 12.4783,1.6438 24.4783,0.977136 36.5,0.5C 48.5217,0.977136 60.5217,1.6438 72.5,2.5C 70.8616,16.1556 63.5283,25.489 50.5,30.5C 48.0082,34.4913 44.8416,37.8247 41,40.5C 40.3333,44.8333 40.3333,49.1667 41,53.5C 44.3118,55.3262 47.8118,56.6595 51.5,57.5 Z M 35.5,9.5 C 35.1083,13.6982 32.775,15.5316 28.5,15C 30.019,16.3513 31.3523,17.8513 32.5,19.5C 31.3554,20.891 31.3554,22.2243 32.5,23.5C 33.8333,22.8333 35.1667,22.1667 36.5,21.5C 37.8333,22.1667 39.1667,22.8333 40.5,23.5C 41.6446,22.2243 41.6446,20.891 40.5,19.5C 41.6477,17.8513 42.981,16.3513 44.5,15C 42.8333,14.6667 41.1667,14.3333 39.5,14C 38.7171,11.8816 37.3838,10.3816 35.5,9.5 Z M 5.5,6.5 C 6.67105,14.7568 11.0044,20.2568 18.5,23C 16.7862,18.0959 15.4529,13.0959 14.5,8C 14.8333,7.66667 15.1667,7.33333 15.5,7C 12.1832,6.50166 8.8499,6.33499 5.5,6.5 Z M 58.5,6.5 C 57.9659,12.2123 56.6326,17.7123 54.5,23C 54.8333,23.1667 55.1667,23.3333 55.5,23.5C 61.8586,19.6264 66.1919,14.1264 68.5,7C 65.1832,6.50166 61.8499,6.33499 58.5,6.5 Z"/></g>
<g><path  fill="#999" d="M 34.5,8.5 C 37.4905,8.32966 39.4905,9.66299 40.5,12.5C 46.8142,12.8975 47.6476,14.8975 43,18.5C 44.3538,24.9005 42.1871,26.5671 36.5,23.5C 34.8957,23.9391 33.3957,24.6057 32,25.5C 29.298,24.3847 28.798,22.5513 30.5,20C 29.5,18.3333 28.5,16.6667 27.5,15C 27.6448,14.228 27.9781,13.5613 28.5,13C 31.8427,13.0595 33.8427,11.5595 34.5,8.5 Z M 35.5,9.5 C 35.1083,13.6982 32.775,15.5316 28.5,15C 30.019,16.3513 31.3523,17.8513 32.5,19.5C 31.3554,20.891 31.3554,22.2243 32.5,23.5C 33.8333,22.8333 35.1667,22.1667 36.5,21.5C 37.8333,22.1667 39.1667,22.8333 40.5,23.5C 41.6446,22.2243 41.6446,20.891 40.5,19.5C 41.6477,17.8513 42.981,16.3513 44.5,15C 42.8333,14.6667 41.1667,14.3333 39.5,14C 38.7171,11.8816 37.3838,10.3816 35.5,9.5 Z"/></g>
<g><path  fill="#999" d="M 3.5,5.5 C 7.83333,5.5 12.1667,5.5 16.5,5.5C 16.7786,12.0747 18.1119,18.408 20.5,24.5C 16.019,24.3398 12.1857,22.3398 9,18.5C 6.06313,14.6271 4.2298,10.2938 3.5,5.5 Z M 5.5,6.5 C 6.67105,14.7568 11.0044,20.2568 18.5,23C 16.7862,18.0959 15.4529,13.0959 14.5,8C 14.8333,7.66667 15.1667,7.33333 15.5,7C 12.1832,6.50166 8.8499,6.33499 5.5,6.5 Z"/></g>
<g><path  fill="#999" d="M 57.5,4.5 C 61.1817,4.3347 64.8484,4.50137 68.5,5C 68.5371,15.0065 63.7038,21.8399 54,25.5C 53.5,25.1667 53,24.8333 52.5,24.5C 54.934,17.9883 56.6006,11.3216 57.5,4.5 Z M 58.5,6.5 C 57.9659,12.2123 56.6326,17.7123 54.5,23C 54.8333,23.1667 55.1667,23.3333 55.5,23.5C 61.8586,19.6264 66.1919,14.1264 68.5,7C 65.1832,6.50166 61.8499,6.33499 58.5,6.5 Z"/></g>
<g><path fill="#999" d="M 21.5,57.5 C 31.5,58.8333 41.5,58.8333 51.5,57.5C 52.0431,57.56 52.3764,57.8933 52.5,58.5C 41.8333,59.8333 31.1667,59.8333 20.5,58.5C 20.6236,57.8933 20.9569,57.56 21.5,57.5 Z"/></g>
<g><path  fill="#999" d="M 60.5,68.5 C 44.5,68.5 28.5,68.5 12.5,68.5C 12.5,66.5 12.5,64.5 12.5,62.5C 28.5,62.5 44.5,62.5 60.5,62.5C 60.5,64.5 60.5,66.5 60.5,68.5 Z"/></g>
<g><path fill="#999" d="M 58.5,67.5 C 58.5,66.5 58.5,65.5 58.5,64.5C 43.8333,64.5 29.1667,64.5 14.5,64.5C 14.5,65.5 14.5,66.5 14.5,67.5C 13.5655,66.4324 13.2322,65.099 13.5,63.5C 28.8333,63.5 44.1667,63.5 59.5,63.5C 59.7678,65.099 59.4345,66.4324 58.5,67.5 Z"/></g>
<g><path fill="#999" d="M 58.5,67.5 C 43.8333,67.5 29.1667,67.5 14.5,67.5C 14.5,66.5 14.5,65.5 14.5,64.5C 29.1667,64.5 43.8333,64.5 58.5,64.5C 58.5,65.5 58.5,66.5 58.5,67.5 Z"/></g>
</svg>
