<?xml version="1.0" encoding="UTF-8"?>
<svg width="24px" height="24px" viewBox="0 0 24 24" version="1.1" xmlns="http://www.w3.org/2000/svg" xmlns:xlink="http://www.w3.org/1999/xlink">
    <title>Group 20</title>
    <g id="Page-1" stroke="none" stroke-width="1" fill="none" fill-rule="evenodd">
        <g id="Artboard-Copy" transform="translate(-1178.000000, -3011.000000)">
            <g id="Group-4" transform="translate(150.000000, 3011.000000)">
                <g id="Group-29" transform="translate(984.000000, 0.000000)">
                    <g id="Group-20" transform="translate(44.000000, 0.000000)">
                        <rect id="Rectangle-Copy-7" x="0" y="0" width="24" height="24"></rect>
                        <path d="M13.4368519,3 L13.4368519,5.56005956 C15.7520943,7.0986213 17.0467785,8.84025741 17.3209045,10.7849679 C17.5950305,12.7296784 16.7318104,14.2723555 14.7312444,15.4129992 L13.3485905,15.4129992 L13.3485905,17.592455 L15.3001996,17.592455 C15.9533563,17.3767663 16.4534297,17.077408 16.8004196,16.6943799 C17.1474095,16.3113519 17.7015183,15.9639054 18.4627459,15.6520405 L22.5292731,14.564357 C22.7288511,14.5109754 22.9339153,14.629491 22.9872969,14.829069 C22.9957294,14.8605956 23,14.8930901 23,14.9257249 L23,15.1779274 C22.9999387,15.3226028 22.9197756,15.4553505 22.7912396,15.5217638 C22.2746404,15.7936411 21.8938337,16.015715 21.6488194,16.1879856 C21.2334309,16.480047 21.1849521,16.4412598 20.5089988,17.3670791 C19.8330455,18.2928984 20.2476121,18.095743 19.4850634,19.1515735 C18.9766977,19.8554605 18.2553114,20.4716027 17.3209045,21 L6.89378189,21 C5.00756296,20.7310744 3.74687582,20.1149322 3.11172047,19.1515735 C2.47656511,18.1882148 2.10599162,16.9420233 2,15.4129992 L6.89378189,15.4129992 C7.03959694,16.0959987 7.21569298,16.5721162 7.42207004,16.8413518 C7.62844709,17.1105874 8.00922351,17.3609552 8.56439931,17.592455 L11.4579688,17.592455 L11.4579688,15.4129992 L8.96508763,15.4129992 C10.1788866,14.069758 10.785786,12.5270809 10.785786,10.7849679 C10.785786,9.04285485 10.1788866,6.97860991 8.96508763,4.59223309 L11.4579688,5.18314904 L11.4579688,3 L13.4368519,3 Z M7.64986508,6.75795376 C8.52668012,7.95346519 8.96508763,9.20577721 8.96508763,10.5148898 C8.96508763,11.8240025 8.52668012,12.8127237 7.64986508,13.4810535 L7.64986508,13.4810535 L3.11172047,13.4810535 Z" id="Combined-Shape" fill="#FFFFFF"></path>
                    </g>
                </g>
            </g>
        </g>
    </g>
</svg>