<?xml version="1.0" encoding="UTF-8"?>
<!DOCTYPE svg PUBLIC "-//W3C//DTD SVG 1.1//EN" "http://www.w3.org/Graphics/SVG/1.1/DTD/svg11.dtd">
<svg xmlns="http://www.w3.org/2000/svg" version="1.1" width="75px" height="67px" style="shape-rendering:geometricPrecision; text-rendering:geometricPrecision; image-rendering:optimizeQuality; fill-rule:evenodd; clip-rule:evenodd" xmlns:xlink="http://www.w3.org/1999/xlink">
<g><path  fill="#999" d="M 8.5,-0.5 C 27.8333,-0.5 47.1667,-0.5 66.5,-0.5C 68.1572,2.00881 67.8238,4.17547 65.5,6C 46.8333,6.66667 28.1667,6.66667 9.5,6C 7.31619,4.10244 6.98286,1.93577 8.5,-0.5 Z"/></g>
<g><path fill="#999" d="M 9.5,0.5 C 28.1696,0.333386 46.8363,0.500053 65.5,1C 66.3366,2.01127 66.67,3.17793 66.5,4.5C 47.5,4.5 28.5,4.5 9.5,4.5C 9.5,3.16667 9.5,1.83333 9.5,0.5 Z"/></g>
<g><path  fill="#999" d="M 74.5,23.5 C 74.5,26.5 74.5,29.5 74.5,32.5C 73.2823,33.7311 71.949,34.8978 70.5,36C 64.7536,37.7227 60.2536,36.2227 57,31.5C 50.4173,38.145 43.9173,38.145 37.5,31.5C 33.9776,36.1879 29.3109,37.6879 23.5,36C 22,34.5 20.5,33 19,31.5C 15.2115,36.1532 10.3782,37.6532 4.5,36C 2.17434,34.1951 0.507671,32.0284 -0.5,29.5C -0.5,28.5 -0.5,27.5 -0.5,26.5C 1.48444,21.2821 3.48444,15.9487 5.5,10.5C 26.5,9.16667 47.5,9.16667 68.5,10.5C 70.2752,15.0437 72.2752,19.3771 74.5,23.5 Z"/></g>
<g><path fill="#999" d="M 6.5,11.5 C 26.8443,11.167 47.1776,11.5004 67.5,12.5C 70.6753,18.1852 72.5086,24.1852 73,30.5C 68.0986,37.1417 63.0986,37.1417 58,30.5C 57.7811,29.062 57.2811,27.7287 56.5,26.5C 54.3931,34.0513 49.7264,36.5513 42.5,34C 40.2625,31.9695 38.7625,29.4695 38,26.5C 35.5671,33.9654 30.7338,36.4654 23.5,34C 21.1064,32.0478 19.6064,29.5478 19,26.5C 15.501,36.2383 9.83429,37.905 2,31.5C 1.83333,30.3333 1.66667,29.1667 1.5,28C 3.05642,22.4082 4.72309,16.9082 6.5,11.5 Z"/></g>
<g><path  fill="#999" d="M 66.5,66.5 C 47.1667,66.5 27.8333,66.5 8.5,66.5C 8.21719,65.7109 7.71719,65.0442 7,64.5C 6.50031,56.8406 6.33365,49.1739 6.5,41.5C 8.5,41.5 10.5,41.5 12.5,41.5C 12.5,47.8333 12.5,54.1667 12.5,60.5C 29.1667,60.5 45.8333,60.5 62.5,60.5C 62.5,54.1667 62.5,47.8333 62.5,41.5C 64.8333,41.5 67.1667,41.5 69.5,41.5C 69.6663,48.5079 69.4996,55.5079 69,62.5C 68.3378,63.9839 67.5045,65.3172 66.5,66.5 Z"/></g>
<g><path fill="#999" d="M 67.5,43.5 C 66.5,43.5 65.5,43.5 64.5,43.5C 64.8229,49.69 64.4896,55.69 63.5,61.5C 63.5,55.1667 63.5,48.8333 63.5,42.5C 65.099,42.2322 66.4324,42.5655 67.5,43.5 Z"/></g>
<g><path fill="#999" d="M 63.5,61.5 C 64.4896,55.69 64.8229,49.69 64.5,43.5C 65.5,43.5 66.5,43.5 67.5,43.5C 67.6663,50.175 67.4996,56.8417 67,63.5C 66.5,64 66,64.5 65.5,65C 46.8333,65.6667 28.1667,65.6667 9.5,65C 9,64.5 8.5,64 8,63.5C 7.50038,56.5079 7.33371,49.5079 7.5,42.5C 8.83333,42.5 10.1667,42.5 11.5,42.5C 11.189,49.0898 11.5223,55.5898 12.5,62C 29.6717,62.8284 46.6717,62.6617 63.5,61.5 Z"/></g>
</svg>
