<?xml version="1.0" encoding="UTF-8"?>
<svg width="24px" height="24px" viewBox="0 0 24 24" version="1.1" xmlns="http://www.w3.org/2000/svg" xmlns:xlink="http://www.w3.org/1999/xlink">
    <title>Group 19</title>
    <g id="Page-1" stroke="none" stroke-width="1" fill="none" fill-rule="evenodd">
        <g id="Artboard-Copy" transform="translate(-1134.000000, -3011.000000)">
            <g id="Group-4" transform="translate(150.000000, 3011.000000)">
                <g id="Group-19" transform="translate(984.000000, 0.000000)">
                    <rect id="Rectangle" x="0" y="0" width="24" height="24"></rect>
                    <g id="twitter" transform="translate(1.000000, 3.000000)" fill="#FFFFFF" fill-rule="nonzero">
                        <path d="M21.42,2.06485714 C20.6331429,2.40428571 19.7768571,2.64857143 18.8948571,2.74371429 C19.8051429,2.20114286 20.4968571,1.34485714 20.8234286,0.326571429 C19.9825714,0.828 19.0311429,1.19571429 18.0411429,1.386 C17.2388571,0.529714286 16.0997143,0 14.8371429,0 C12.4071429,0 10.4528571,1.96971429 10.4528571,4.38685714 C10.4528571,4.72628571 10.494,5.06571429 10.5608571,5.39228571 C6.92228571,5.202 3.67714286,3.46371429 1.51971429,0.802285714 C1.13914286,1.45542857 0.923142857,2.20114286 0.923142857,3.01628571 C0.923142857,4.53857143 1.69714286,5.88085714 2.87742857,6.67028571 C2.15742857,6.642 1.47857143,6.43885714 0.894857143,6.11228571 L0.894857143,6.16628571 C0.894857143,8.298 2.40171429,10.0645714 4.41,10.4708571 C4.04228571,10.566 3.64885714,10.62 3.25542857,10.62 C2.97,10.62 2.7,10.5917143 2.42742857,10.5531429 C2.98285714,12.2914286 4.60028571,13.554 6.52628571,13.5951429 C5.01942857,14.7754286 3.132,15.4697143 1.08257143,15.4697143 C0.714857143,15.4697143 0.375428571,15.4568571 0.0231428571,15.4157143 C1.96714286,16.6628571 4.27371429,17.3828571 6.75771429,17.3828571 C14.8217143,17.3828571 19.2342857,10.7022857 19.2342857,4.90371429 C19.2342857,4.71342857 19.2342857,4.52314286 19.2214286,4.33285714 C20.0751429,3.708 20.8234286,2.934 21.42,2.06485714 Z" id="Path"></path>
                    </g>
                </g>
            </g>
        </g>
    </g>
</svg>