<svg width="22px" height="18px" viewBox="0 0 22 18" version="1.1" xmlns="http://www.w3.org/2000/svg" xmlns:xlink="http://www.w3.org/1999/xlink">
    <defs>
        <linearGradient x1="13.4437243%" y1="17.0001206%" x2="86.892839%" y2="92.9554769%" id="linearGradient-5o6dl0opl1-1">
            <stop stop-color="#F2DC8D" offset="0%"></stop>
            <stop stop-color="#C2993E" offset="100%"></stop>
        </linearGradient>
    </defs>
    <g id="Page-1" stroke="none" stroke-width="1" fill="none" fill-rule="evenodd">
        <g id="Artboard-Copy" transform="translate(-257.000000, -32.000000)" fill="url(#linearGradient-5o6dl0opl1-1)" fill-rule="nonzero">
            <g id="Group-10" transform="translate(150.000000, 15.000000)">
                <g id="Group-19" transform="translate(106.000000, 13.000000)">
                    <path d="M22.42,6.06485714 C21.6331429,6.40428571 20.7768571,6.64857143 19.8948571,6.74371429 C20.8051429,6.20114286 21.4968571,5.34485714 21.8234286,4.32657143 C20.9825714,4.828 20.0311429,5.19571429 19.0411429,5.386 C18.2388571,4.52971429 17.0997143,4 15.8371429,4 C13.4071429,4 11.4528571,5.96971429 11.4528571,8.38685714 C11.4528571,8.72628571 11.494,9.06571429 11.5608571,9.39228571 C7.92228571,9.202 4.67714286,7.46371429 2.51971429,4.80228571 C2.13914286,5.45542857 1.92314286,6.20114286 1.92314286,7.01628571 C1.92314286,8.53857143 2.69714286,9.88085714 3.87742857,10.6702857 C3.15742857,10.642 2.47857143,10.4388571 1.89485714,10.1122857 L1.89485714,10.1662857 C1.89485714,12.298 3.40171429,14.0645714 5.41,14.4708571 C5.04228571,14.566 4.64885714,14.62 4.25542857,14.62 C3.97,14.62 3.7,14.5917143 3.42742857,14.5531429 C3.98285714,16.2914286 5.60028571,17.554 7.52628571,17.5951429 C6.01942857,18.7754286 4.132,19.4697143 2.08257143,19.4697143 C1.71485714,19.4697143 1.37542857,19.4568571 1.02314286,19.4157143 C2.96714286,20.6628571 5.27371429,21.3828571 7.75771429,21.3828571 C15.8217143,21.3828571 20.2342857,14.7022857 20.2342857,8.90371429 C20.2342857,8.71342857 20.2342857,8.52314286 20.2214286,8.33285714 C21.0751429,7.708 21.8234286,6.934 22.42,6.06485714 Z" id="Path"></path>
                </g>
            </g>
        </g>
    </g>
</svg>
