<svg xmlns="http://www.w3.org/2000/svg"
xmlns:xlink="http://www.w3.org/1999/xlink" width="1250.5px"
height="1470.5px">
  <defs>
    <filter filterUnits="userSpaceOnUse" id="Filter_0" x="197px"
    y="185px" width="869px" height="1129px">
      <feOffset in="SourceAlpha" dx="3.709" dy="5.936" />
      <feGaussianBlur result="blurOut" stdDeviation="0" />
      <feFlood flood-color="rgb(0, 0, 0)" result="floodOut" />
      <feComposite operator="atop" in="floodOut" in2="blurOut" />
      <feComponentTransfer>
        <feFuncA type="linear" slope="1" />
      </feComponentTransfer>
      <feMerge>
        <feMergeNode />
        <feMergeNode in="SourceGraphic" />
      </feMerge>
    </filter>
  </defs>
  <g filter="url(#Filter_0)">
    <path fill-rule="evenodd" fill-opacity="0" opacity="0.969"
    fill="rgb(0, 130, 150)"
    d="M214.276,185.504 L1044.707,185.504 C1054.96,185.504 1061.708,193.115 1061.708,202.504 L1061.708,1290.772 C1061.708,1300.160 1054.96,1307.772 1044.707,1307.772 L214.276,1307.772 C204.887,1307.772 197.276,1300.160 197.276,1290.772 L197.276,202.504 C197.276,193.115 204.887,185.504 214.276,185.504 Z" />
  </g>
  <path fill-rule="evenodd" fill="rgb(2, 115, 141)"
  d="M214.276,185.504 L1044.707,185.504 C1054.96,185.504 1061.708,193.115 1061.708,202.504 L1061.708,1290.772 C1061.708,1300.160 1054.96,1307.772 1044.707,1307.772 L214.276,1307.772 C204.887,1307.772 197.276,1300.160 197.276,1290.772 L197.276,202.504 C197.276,193.115 204.887,185.504 214.276,185.504 Z" />
  <path fill-rule="evenodd" opacity="0.129"
  fill="rgb(255, 255, 255)"
  d="M209.271,1448.864 L1248.807,187.679 C1248.807,187.679 1176.728,-13.666 1140.198,1.494 C1103.668,16.654 0.921,156.648 0.921,156.648 L207.54,1468.813 L209.271,1448.864 Z" />
  <path fill-rule="evenodd" stroke="rgb(147, 230, 236)"
  stroke-width="3px" stroke-linecap="butt" stroke-linejoin="miter"
  opacity="0.502" fill="none"
  d="M214.276,185.504 L1044.707,185.504 C1054.96,185.504 1061.708,193.115 1061.708,202.504 L1061.708,1290.772 C1061.708,1300.160 1054.96,1307.772 1044.707,1307.772 L214.276,1307.772 C204.887,1307.772 197.276,1300.160 197.276,1290.772 L197.276,202.504 C197.276,193.115 204.887,185.504 214.276,185.504 Z" />
  <path fill-rule="evenodd" stroke="rgb(147, 230, 236)"
  stroke-width="3px" stroke-linecap="butt" stroke-linejoin="miter"
  opacity="0.329" fill="none"
  d="M214.276,185.504 L1044.707,185.504 C1054.96,185.504 1061.708,193.115 1061.708,202.504 L1061.708,1291.5 C1061.708,1300.394 1054.96,1308.5 1044.707,1308.5 L214.276,1308.5 C204.887,1308.5 197.276,1300.394 197.276,1291.5 L197.276,202.504 C197.276,193.115 204.887,185.504 214.276,185.504 Z" />
</svg>
