<?xml version="1.0" encoding="UTF-8"?>
<svg width="23px" height="18px" viewBox="0 0 23 18" version="1.1" xmlns="http://www.w3.org/2000/svg" xmlns:xlink="http://www.w3.org/1999/xlink">
    <title>Shape</title>
    <g id="Page-1" stroke="none" stroke-width="1" fill="none" fill-rule="evenodd">
        <g id="Artboard-Copy" transform="translate(-1267.000000, -3014.000000)" fill="#FFFFFF" fill-rule="nonzero">
            <g id="Group-4" transform="translate(150.000000, 3011.000000)">
                <g id="Group-29" transform="translate(984.000000, 0.000000)">
                    <g id="Group-22" transform="translate(132.000000, 0.000000)">
                        <g id="discord" transform="translate(1.000005, 2.999972)">
                            <path d="M19.159377,1.51735068 C19.1530962,1.50465101 19.1426874,1.49469957 19.1300152,1.48927884 C17.6648757,0.787829333 16.1187335,0.287640912 14.5302815,0.00123104566 C14.5006822,-0.00451102983 14.4708904,0.0102000016 14.4563774,0.0377244294 C14.2458412,0.43646035 14.0547208,0.846027827 13.8837454,1.26486459 C12.171481,0.993643261 10.4297933,0.993643261 8.71752883,1.26486459 C8.54542153,0.844964291 8.35123848,0.435294709 8.1358654,0.0377244294 C8.12074806,0.0108584649 8.0914156,-0.00361819305 8.06192285,0.00123104566 C6.47330301,0.287039626 4.92706037,0.787265652 3.46211229,1.48931895 C3.44957175,1.49486654 3.43899031,1.50433869 3.43182813,1.51642832 C0.502219822,6.08163032 -0.300310458,10.5345851 0.0933836418,14.9323987 C0.0956213337,14.9541758 0.106230543,14.9740738 0.122783875,14.9875398 C1.82866765,16.3055338 3.73671928,17.3115686 5.76551485,17.9627131 C5.7947756,17.9718722 5.82640764,17.9610564 5.8447994,17.9356037 C6.28054069,17.3169326 6.66664019,16.6618146 6.99917169,15.9769116 C7.00841383,15.9579011 7.00941972,15.9356729 7.00193544,15.9158383 C6.99445115,15.8960036 6.97919189,15.8804581 6.96000981,15.873126 C6.3511591,15.6300374 5.7617205,15.3369999 5.19722564,14.9967635 C5.17640127,14.9839893 5.16304878,14.9612246 5.16162169,14.9360622 C5.1601946,14.9108998 5.1708807,14.8866507 5.19011578,14.8714027 C5.30889915,14.7788179 5.42562153,14.6833885 5.54018993,14.5851903 C5.5606862,14.5675752 5.58897685,14.5635976 5.61321012,14.574924 C9.31145196,16.3361107 13.3153025,16.3361107 16.9697707,14.574924 C16.9940777,14.5628672 17.0228669,14.5665052 17.0437132,14.5842679 C17.1584118,14.6829853 17.2754337,14.7787261 17.3946713,14.8714027 C17.4140092,14.8864943 17.4248642,14.9106524 17.4236145,14.9358165 C17.4223647,14.9609807 17.4091747,14.9838386 17.3884454,14.9967635 C16.8252341,15.3398619 16.2352612,15.6327159 15.6248157,15.8722036 C15.605643,15.8798169 15.5904887,15.8955962 15.5831516,15.9155862 C15.5758146,15.9355762 15.5769903,15.9578818 15.586384,15.9769116 C15.9244829,16.6580058 16.3100138,17.3122984 16.7398724,17.9345209 C16.7577648,17.9606967 16.7896934,17.9720015 16.8191569,17.9625928 C18.851588,17.3136559 20.7629745,16.3075275 22.4709962,14.9875398 C22.4878206,14.9747272 22.498535,14.9549682 22.5003965,14.9333211 C22.9717225,9.8489907 21.7113173,5.43252932 19.159377,1.51735068 L19.159377,1.51735068 Z M7.55147332,12.2545864 C6.43803077,12.2545864 5.52058978,11.1883781 5.52058978,9.87894736 C5.52058978,8.56951662 6.4202369,7.50322808 7.55147332,7.50322808 C8.69154901,7.50322808 9.60011229,8.57878033 9.58231842,9.87886715 C9.58231842,11.1883781 8.68263287,12.2545864 7.55147332,12.2545864 L7.55147332,12.2545864 Z M15.0602544,12.2545864 C13.9468503,12.2545864 13.0294093,11.1883781 13.0294093,9.87894736 C13.0294093,8.56951662 13.9290564,7.50322808 15.0602544,7.50322808 C16.2004069,7.50322808 17.1089318,8.57878033 17.0911379,9.87886715 C17.0911379,11.1883781 16.2004069,12.2545864 15.0602544,12.2545864 Z" id="Shape"></path>
                        </g>
                    </g>
                </g>
            </g>
        </g>
    </g>
</svg>