<svg width="24px" height="24px" viewBox="0 0 24 24" version="1.1" xmlns="http://www.w3.org/2000/svg" xmlns:xlink="http://www.w3.org/1999/xlink">
    <defs>
        <linearGradient x1="13.4437243%" y1="19.3761815%" x2="86.892839%" y2="89.8625921%" id="linearGradient-nlvoj211ks-1">
            <stop stop-color="#F2DC8D" offset="0%"></stop>
            <stop stop-color="#C2993E" offset="100%"></stop>
        </linearGradient>
    </defs>
    <g id="Page-1" stroke="none" stroke-width="1" fill="none" fill-rule="evenodd">
        <g id="Artboard-Copy" transform="translate(-336.000000, -28.000000)">
            <g id="Group-10" transform="translate(150.000000, 15.000000)">
                <g id="Group-21" transform="translate(186.000000, 13.000000)">
                    <rect id="Rectangle-Copy-8" x="0" y="0" width="24" height="24"></rect>
                    <path d="M3.72741666,6.67179217 C3.75609074,6.3933941 3.64820341,6.11823059 3.43704166,5.93119915 L1.290375,3.38068747 L1.290375,3 L7.9575,3 L13.1114167,14.1419575 L17.6424167,3 L24,3 L24,3.38068747 L22.162875,5.11598005 C22.0046139,5.23505913 21.9260742,5.43060069 21.95875,5.62419313 L21.95875,18.3767515 C21.9264499,18.5700324 22.0049503,18.7651128 22.162875,18.8840199 L23.9549583,20.6193125 L23.9549583,21 L14.9370417,21 L14.9370417,20.6193125 L16.7933333,18.8415114 C16.9754167,18.662031 16.9754167,18.6091315 16.9754167,18.3332983 L16.9754167,8.02639727 L11.81,20.9565468 L11.1132917,20.9565468 L5.09975,8.02639727 L5.09975,16.6924692 C5.04991666,17.0570979 5.17258334,17.4236158 5.43229166,17.6871687 L7.84729166,20.5777486 L7.84729166,20.9574915 L1,20.9574915 L1,20.576804 L3.415,17.6862241 C3.67375,17.4236158 3.78875,17.0533193 3.72741666,16.6924692 L3.72741666,6.67179217 Z" id="Path" fill="url(#linearGradient-nlvoj211ks-1)" fill-rule="nonzero"></path>
                </g>
            </g>
        </g>
    </g>
</svg>
