<svg
  xmlns="http://www.w3.org/2000/svg"
  xmlns:xlink="http://www.w3.org/1999/xlink"
  width="86px"
  height="82px"
>
  <path
    fill-rule="evenodd"
    fill="#fff"
    d="M62.512,51.697 L63.955,53.82 L68.802,48.32 L69.466,45.896 L72.293,45.838 L74.458,47.915 L74.516,50.743 L72.410,51.494 C72.410,51.494 69.471,54.727 68.255,55.823 C66.549,57.492 68.342,60.64 68.342,60.64 L78.472,71.172 L82.50,73.221 L82.167,78.876 L76.511,78.993 L74.317,75.501 L62.803,65.836 C62.803,65.836 60.742,63.784 58.561,65.923 C57.601,66.865 53.714,70.974 53.714,70.974 L53.51,73.109 L50.223,73.167 L48.58,71.90 L48.0,68.262 L50.106,67.512 L55.646,61.740 L54.203,60.355 L5.864,13.962 L3.525,3.401 L14.173,5.304 L62.512,51.697 Z"
  />
  <path
    fill-rule="evenodd"
    fill="#fff"
    d="M23.174,51.697 L21.731,53.82 L16.884,48.32 L16.221,45.896 L13.393,45.838 L11.229,47.915 L11.171,50.743 L13.277,51.494 C13.277,51.494 16.215,54.727 17.432,55.823 C19.138,57.492 17.344,60.64 17.344,60.64 L7.215,71.172 L3.636,73.221 L3.520,78.876 L9.176,78.993 L11.369,75.501 L22.884,65.836 C22.884,65.836 24.945,63.784 27.126,65.923 C28.86,66.865 31.973,70.974 31.973,70.974 L32.636,73.109 L35.464,73.167 L37.628,71.90 L37.686,68.262 L35.580,67.512 L30.41,61.740 L31.484,60.355 L79.823,13.962 L82.162,3.401 L71.514,5.304 L23.174,51.697 Z"
  />
</svg>