<?xml version="1.0" encoding="UTF-8"?>
<!DOCTYPE svg PUBLIC "-//W3C//DTD SVG 1.1//EN" "http://www.w3.org/Graphics/SVG/1.1/DTD/svg11.dtd">
<svg xmlns="http://www.w3.org/2000/svg" version="1.1" width="76px" height="71px" style="shape-rendering:geometricPrecision; text-rendering:geometricPrecision; image-rendering:optimizeQuality; fill-rule:evenodd; clip-rule:evenodd" xmlns:xlink="http://www.w3.org/1999/xlink">
<g><path  fill="#999" d="M 16.5,-0.5 C 18.1667,-0.5 19.8333,-0.5 21.5,-0.5C 19.6597,1.66895 17.3263,3.00228 14.5,3.5C 14.5271,1.80072 15.1938,0.46739 16.5,-0.5 Z"/></g>
<g><path  fill="#999" d="M 28.5,-0.5 C 30.1667,-0.5 31.8333,-0.5 33.5,-0.5C 33.5,-0.166667 33.5,0.166667 33.5,0.5C 34.1667,0.5 34.5,0.166667 34.5,-0.5C 36.5,-0.5 38.5,-0.5 40.5,-0.5C 42.1184,1.31597 44.1184,2.6493 46.5,3.5C 53.4367,7.64056 60.4367,11.8072 67.5,16C 70.146,16.4974 72.8127,16.6641 75.5,16.5C 75.5,19.8333 75.5,23.1667 75.5,26.5C 50.1667,26.5 24.8333,26.5 -0.5,26.5C -0.5,25.8333 -0.5,25.1667 -0.5,24.5C 24.5,24.5 49.5,24.5 74.5,24.5C 74.5,22.5 74.5,20.5 74.5,18.5C 71.8127,18.6641 69.146,18.4974 66.5,18C 56.8333,12.8333 47.1667,7.66667 37.5,2.5C 27.5799,7.75603 17.5799,12.9227 7.5,18C 4.85397,18.4974 2.1873,18.6641 -0.5,18.5C -0.5,17.8333 -0.5,17.1667 -0.5,16.5C 2.48693,16.0022 5.48693,15.5022 8.5,15C 13.7639,11.5419 19.0973,8.3752 24.5,5.5C 26.0898,5.37178 27.4231,4.70512 28.5,3.5C 27.1931,2.13497 27.1931,0.801633 28.5,-0.5 Z M 33.5,0.5 C 32.4732,1.84781 31.1398,2.34781 29.5,2C 30.5634,0.811806 31.8967,0.311806 33.5,0.5 Z"/></g>
<g><path  fill="#999" d="M 42.5,-0.5 C 43.8333,-0.5 45.1667,-0.5 46.5,-0.5C 48.8362,1.07282 48.8362,2.40615 46.5,3.5C 45.6304,1.72632 44.297,0.392987 42.5,-0.5 Z"/></g>
<g><path fill="#999" d="M -0.5,24.5 C -0.5,22.5 -0.5,20.5 -0.5,18.5C 2.1873,18.6641 4.85397,18.4974 7.5,18C 17.5799,12.9227 27.5799,7.75603 37.5,2.5C 47.1667,7.66667 56.8333,12.8333 66.5,18C 69.146,18.4974 71.8127,18.6641 74.5,18.5C 74.5,20.5 74.5,22.5 74.5,24.5C 49.5,24.5 24.5,24.5 -0.5,24.5 Z"/></g>
<g><path  fill="#999" d="M 14.5,3.5 C 13.8333,4.16667 13.8333,4.16667 14.5,3.5 Z"/></g>
<g><path  fill="#999" d="M 11.5,4.5 C 12.8333,5.16667 12.8333,5.16667 11.5,4.5 Z"/></g>
<g><path  fill="#999" d="M 24.5,5.5 C 23.7611,5.63101 23.0944,5.46434 22.5,5C 23.4368,4.30831 24.1034,4.47498 24.5,5.5 Z"/></g>
<g><path  fill="#999" d="M 5.5,28.5 C 9.16667,28.5 12.8333,28.5 16.5,28.5C 16.5,38.8333 16.5,49.1667 16.5,59.5C 12.8333,59.5 9.16667,59.5 5.5,59.5C 5.5,49.1667 5.5,38.8333 5.5,28.5 Z"/></g>
<g><path  fill="#999" d="M 22.5,28.5 C 26.5,28.5 30.5,28.5 34.5,28.5C 34.5,38.8333 34.5,49.1667 34.5,59.5C 30.5633,59.7935 26.73,59.4601 23,58.5C 22.5002,48.5056 22.3335,38.5056 22.5,28.5 Z"/></g>
<g><path  fill="#999" d="M 40.5,28.5 C 44.5,28.5 48.5,28.5 52.5,28.5C 52.6665,38.5056 52.4998,48.5056 52,58.5C 48.27,59.4601 44.4367,59.7935 40.5,59.5C 40.5,49.1667 40.5,38.8333 40.5,28.5 Z"/></g>
<g><path  fill="#999" d="M 58.5,28.5 C 62.1667,28.5 65.8333,28.5 69.5,28.5C 69.5,38.8333 69.5,49.1667 69.5,59.5C 65.8333,59.5 62.1667,59.5 58.5,59.5C 58.5,49.1667 58.5,38.8333 58.5,28.5 Z"/></g>
<g><path fill="#999" d="M 7.5,31.5 C 9.85684,31.3367 12.1902,31.5034 14.5,32C 13.1667,40 13.1667,48 14.5,56C 12.1902,56.4966 9.85684,56.6633 7.5,56.5C 7.5,48.1667 7.5,39.8333 7.5,31.5 Z"/></g>
<g><path fill="#999" d="M 24.5,31.5 C 26.8333,31.5 29.1667,31.5 31.5,31.5C 31.5,39.8333 31.5,48.1667 31.5,56.5C 29.1667,56.5 26.8333,56.5 24.5,56.5C 24.5,48.1667 24.5,39.8333 24.5,31.5 Z"/></g>
<g><path fill="#999" d="M 43.5,31.5 C 45.8568,31.3367 48.1902,31.5034 50.5,32C 49.1791,39.8033 49.1791,47.6366 50.5,55.5C 47.8938,56.6517 45.2272,56.8184 42.5,56C 43.4825,47.919 43.8158,39.7524 43.5,31.5 Z"/></g>
<g><path fill="#999" d="M 61.5,31.5 C 63.5,31.5 65.5,31.5 67.5,31.5C 67.5,39.8333 67.5,48.1667 67.5,56.5C 65.5,56.5 63.5,56.5 61.5,56.5C 61.5,48.1667 61.5,39.8333 61.5,31.5 Z"/></g>
<g><path  fill="#999" d="M -0.5,60.5 C 24.8333,60.5 50.1667,60.5 75.5,60.5C 75.5,63.8333 75.5,67.1667 75.5,70.5C 50.1667,70.5 24.8333,70.5 -0.5,70.5C -0.5,67.1667 -0.5,63.8333 -0.5,60.5 Z"/></g>
<g><path fill="#999" d="M 0.5,62.5 C 25.1667,62.5 49.8333,62.5 74.5,62.5C 74.5,64.1667 74.5,65.8333 74.5,67.5C 49.8333,67.5 25.1667,67.5 0.5,67.5C 0.5,65.8333 0.5,64.1667 0.5,62.5 Z"/></g>
</svg>
