<svg
  xmlns="http://www.w3.org/2000/svg"
  xmlns:xlink="http://www.w3.org/1999/xlink"
  width="3361px"
  height="92px"
>
  <path
    fill-rule="evenodd"
    fill="rgb(66, 112, 127)"
    d="M3348.3,86.22 C3341.34,89.983 3334.742,91.970 3329.197,91.970 C3326.275,91.970 3323.561,91.418 3321.63,90.312 C3317.923,88.922 3315.512,86.825 3313.676,84.588 C3311.483,83.12 3309.708,80.858 3308.632,78.107 C3304.970,68.741 3307.615,54.247 3320.182,54.572 C3321.378,54.603 3322.127,56.132 3321.194,57.1 C3320.336,57.801 3319.159,57.814 3318.438,58.463 C3313.931,62.515 3314.80,69.348 3318.401,73.369 C3327.336,81.685 3336.28,66.324 3333.647,58.626 C3330.242,47.612 3314.768,40.954 3304.273,43.796 C3304.155,43.827 3304.42,43.844 3303.934,43.850 C3298.671,49.188 3292.997,54.106 3286.834,58.424 C3277.811,64.747 3268.815,70.219 3258.280,73.623 C3251.329,75.869 3242.496,77.793 3234.778,77.23 C3234.688,77.79 3234.588,77.130 3234.477,77.171 C3231.479,78.283 3229.755,80.537 3226.383,80.853 C3222.740,81.194 3218.449,80.693 3215.79,79.247 C3214.68,78.814 3213.126,78.254 3212.303,77.601 C3179.126,83.931 3137.713,86.866 3104.391,88.214 C3053.669,90.264 3010.249,89.190 3009.816,89.179 L2884.126,89.179 C2883.971,89.179 2883.822,89.152 2883.684,89.103 C2883.545,89.152 2883.397,89.179 2883.241,89.179 L350.758,89.179 C350.325,89.190 306.905,90.264 256.183,88.214 C222.861,86.866 181.448,83.931 148.271,77.601 C147.448,78.254 146.506,78.814 145.494,79.247 C142.125,80.693 137.834,81.194 134.190,80.853 C130.819,80.537 129.95,78.283 126.97,77.171 C125.986,77.130 125.886,77.79 125.795,77.23 C118.78,77.793 109.244,75.869 102.293,73.623 C91.758,70.219 82.763,64.747 73.740,58.424 C67.577,54.106 61.903,49.188 56.640,43.850 C56.531,43.844 56.419,43.827 56.301,43.796 C45.806,40.954 30.332,47.612 26.926,58.626 C24.546,66.324 33.238,81.685 42.173,73.369 C46.494,69.348 46.642,62.515 42.136,58.463 C41.415,57.814 40.238,57.801 39.380,57.1 C38.447,56.132 39.196,54.603 40.391,54.572 C52.958,54.247 55.604,68.741 51.941,78.107 C50.866,80.858 49.90,83.11 46.898,84.588 C45.62,86.825 42.651,88.922 39.511,90.312 C37.13,91.418 34.299,91.970 31.376,91.970 C25.832,91.970 19.540,89.983 12.571,86.22 C2.300,80.184 -2.216,67.457 1.66,53.599 C4.271,40.65 15.450,25.963 33.237,24.755 C31.41,17.948 33.624,8.303 38.611,3.447 C42.794,0.625 51.194,-1.39 55.25,3.709 C57.399,6.651 59.565,15.472 55.308,17.663 C54.917,17.864 54.548,17.833 54.239,17.687 C53.901,17.576 53.643,17.309 53.558,16.912 C53.476,16.672 53.472,16.422 53.558,16.181 C53.796,14.87 53.287,12.115 52.10,10.269 C48.237,8.813 46.80,9.596 45.539,12.620 C44.790,14.226 44.834,16.401 44.840,18.152 C44.847,20.428 45.226,22.642 45.901,24.760 C67.886,26.310 77.713,36.223 88.33,46.617 C95.55,53.688 102.315,60.999 113.947,65.597 C121.35,68.399 129.477,70.835 138.881,72.955 C138.917,72.941 138.953,72.928 138.989,72.914 C143.701,71.48 144.929,65.394 142.30,61.432 C140.646,59.541 138.586,58.551 136.357,58.263 C135.797,56.995 136.11,55.367 136.878,54.153 C138.528,51.843 142.37,51.882 144.402,52.816 C147.983,54.231 150.444,57.577 151.437,61.204 C152.294,64.336 151.366,65.886 150.227,68.295 C151.981,70.686 151.751,73.205 150.389,75.310 C226.680,89.486 349.237,86.564 350.724,86.525 L2883.241,86.525 C2883.397,86.525 2883.545,86.553 2883.684,86.601 C2883.822,86.553 2883.971,86.525 2884.126,86.525 L3009.850,86.525 C3011.337,86.564 3133.893,89.486 3210.184,75.310 C3208.822,73.205 3208.592,70.686 3210.347,68.295 C3209.208,65.886 3208.280,64.336 3209.137,61.204 C3210.130,57.577 3212.590,54.231 3216.172,52.816 C3218.537,51.882 3222.46,51.843 3223.696,54.153 C3224.563,55.367 3224.777,56.995 3224.216,58.263 C3221.988,58.551 3219.927,59.541 3218.543,61.432 C3215.645,65.394 3216.873,71.48 3221.585,72.914 C3221.621,72.928 3221.657,72.941 3221.693,72.955 C3231.96,70.835 3239.539,68.399 3246.626,65.597 C3258.258,60.999 3265.519,53.688 3272.540,46.617 C3282.861,36.223 3292.688,26.310 3314.672,24.760 C3315.348,22.642 3315.726,20.428 3315.734,18.152 C3315.739,16.401 3315.784,14.226 3315.35,12.620 C3314.494,9.596 3312.337,8.813 3308.564,10.269 C3307.287,12.115 3306.777,14.87 3307.15,16.181 C3307.101,16.422 3307.97,16.672 3307.16,16.912 C3306.931,17.309 3306.673,17.576 3306.335,17.687 C3306.26,17.833 3305.656,17.864 3305.266,17.663 C3301.9,15.472 3303.175,6.651 3305.549,3.709 C3309.380,-1.39 3317.779,0.625 3321.963,3.447 C3326.950,8.303 3329.533,17.948 3327.337,24.755 C3345.123,25.963 3356.303,40.65 3359.508,53.599 C3362.790,67.457 3358.274,80.184 3348.3,86.22 ZM13.895,83.718 C23.750,89.318 31.996,90.727 38.407,87.895 C38.578,87.820 38.745,87.741 38.911,87.660 C32.929,88.476 26.368,86.664 22.64,82.394 C13.107,73.509 9.227,57.688 18.802,47.774 C24.189,42.198 34.540,37.421 43.803,37.156 C43.192,36.827 42.617,36.473 42.109,36.75 C39.110,33.722 36.207,30.763 34.367,27.348 C34.181,27.358 33.994,27.367 33.806,27.378 C17.150,28.315 6.666,41.528 3.663,54.207 C0.658,66.893 4.675,78.477 13.895,83.718 ZM112.962,68.65 C100.809,63.260 93.349,55.748 86.135,48.482 C76.407,38.685 67.143,29.337 46.972,27.524 C48.37,29.855 49.455,32.40 51.119,34.28 C58.69,42.335 66.209,49.910 75.95,56.118 C85.98,63.107 95.276,69.280 107.278,72.238 C112.667,73.567 118.804,74.376 124.382,74.218 C126.211,74.166 128.69,73.963 129.838,73.473 C123.654,71.843 117.975,70.46 112.962,68.65 ZM3274.439,48.482 C3267.224,55.748 3259.765,63.260 3247.612,68.65 C3242.599,70.46 3236.919,71.843 3230.735,73.473 C3232.505,73.963 3234.363,74.166 3236.192,74.218 C3241.770,74.376 3247.907,73.567 3253.296,72.238 C3265.298,69.280 3275.475,63.107 3285.479,56.118 C3294.365,49.910 3302.505,42.335 3309.455,34.28 C3311.119,32.40 3312.536,29.855 3313.602,27.524 C3293.430,29.337 3284.167,38.685 3274.439,48.482 ZM3356.911,54.207 C3353.908,41.528 3343.424,28.315 3326.767,27.378 C3326.580,27.367 3326.393,27.358 3326.207,27.348 C3324.367,30.763 3321.464,33.722 3318.464,36.75 C3317.956,36.473 3317.382,36.827 3316.771,37.156 C3326.34,37.421 3336.385,42.198 3341.771,47.774 C3351.347,57.688 3347.467,73.509 3338.510,82.394 C3334.206,86.664 3327.644,88.476 3321.663,87.660 C3321.828,87.741 3321.996,87.820 3322.167,87.895 C3328.577,90.727 3336.824,89.318 3346.679,83.718 C3355.899,78.477 3359.916,66.893 3356.911,54.207 Z"
  />
</svg>